<svg id="Layer_1" data-name="Layer 1" xmlns="http://www.w3.org/2000/svg" viewBox="0 0 354 459.28"><defs><style>.cls-1{fill:#fff;}.cls-2{fill:#cccccb;}</style></defs><path class="cls-1" d="M102.21,371.69v5.23H83.89L.1,62.74S-3.17,18.23,26.94,25.43c0,0,8.8,5.09,5.6,39.13L75,251.61l4.95.29,8.44,9.6-3.79.29-4.94-6.69-.87,13.09,1.74,1.17.29-8.15,2.62,4.66-.29,10.76-2.91-.29L89.85,320l3.78.87,2,9,2.62.87s-4.37,9.6,1.16,18.62c0,0,2.62,4.36.29,11.34Z"/><polygon class="cls-1" points="104.69 345 107.3 337.14 102.21 327.54 98.29 330.74 98.29 340.34 102.21 345 104.69 345"/><polygon class="cls-1" points="102.21 347.32 105.56 349.65 105.56 358.67 102.8 360.41 102.21 347.32"/><path class="cls-1" d="M140.47,376.92l-2.33,1.53H122.43L71.23,47.39s-2-30.54,14.84-43.63S98,16,98,16s-1.17,32,.29,37.81,0,1.46,0,1.46l23,176.58,10.76.87,7,13.39-10.76-9.9L121,234l4.94,3.08L123,242.3l.59,1.46,4.07-4.95,6.11,8.44-2,1.74-1.16,10.19h-4.37L125.63,249h-3.2l1.46,2.33,7.27,55,6.69-.29.87,8.15-4.07,11.63-1.16,4.95,3.49,1.75-1.46,3.78.58,1.74,2.91-1.74,1.46-1.75,9.6.29v12.51l-7,3.49-3.49,13.38Z"/><polygon class="cls-1" points="139.59 317.07 144.83 319.98 146.87 317.07 150.07 317.07 152.69 324.34 150.07 333.07 139.59 333.07 136.98 330.45 139.59 323.47 139.59 317.07"/><path class="cls-2" d="M102.21,370.23s7.31,3.49,19.59,2.66l.63,4.1H110.61s-5.34,6.11,22,10.77h2.62s-10.76,5.82-5.82,9c0,0,49.17,48,75.64,51.78s-17.16,16.58-43.93,7.56-16.87.58-29.67-23.27c0,0-38.4-53.53-46.84-55.86H100l2.18-1.52Z"/><path class="cls-2" d="M122.43,378.45,275.74,450s34.91,11.35,78.26,5.82c0,0-60.51-9.6-83.2-22.69L196,400s-10.47-.88,7.27-9.31L169.85,386l-6.4-5.52,6.69-.59-9-1.45,14.55-1.53-.87-2.25H157.92L155,378.45l-14.54-1.53-2.33,1.53"/></svg>